<svg xmlns="http://www.w3.org/2000/svg" viewBox="0 0 319.5 83.2" width="319.5" height="83.2"><defs/><g fill="#002a78"><path d="M65.6 67.7h-7v-1h7v1M77.5 63.7h-2.7v6c0 .7.1 1.1.4 1.4.3.2.6.4 1 .4.5 0 .9-.1 1.2-.3l.1 1a5.2 5.2 0 01-1.5.2 3 3 0 01-.9-.1A2 2 0 0174 71c-.2-.3-.2-.7-.2-1.1v-6.3h-2v-1h2V60h1v2.7h2.8v1M88 67.5c0-.6 0-1.1-.2-1.6a3.6 3.6 0 00-2-2.1 4 4 0 00-1.6-.3c-.6 0-1.2 0-1.6.3-.5.2-.9.5-1.2.8-.4.4-.6.8-.8 1.3a4.6 4.6 0 000 3.2 3.6 3.6 0 002 2.1c.4.2 1 .3 1.6.3a4 4 0 001.6-.3 3.6 3.6 0 002-2.1c.2-.5.3-1 .3-1.6zm1.2 0c0 .7-.1 1.4-.4 2a4.7 4.7 0 01-4.6 3c-.8 0-1.4-.1-2-.4a4.7 4.7 0 01-2.7-2.6c-.2-.6-.3-1.3-.3-2s.1-1.4.3-2a4.7 4.7 0 012.7-2.6c.6-.3 1.2-.4 2-.4.7 0 1.4.1 2 .4a4.7 4.7 0 012.6 2.6c.3.6.4 1.3.4 2M92.8 67.5c0 .6.1 1 .3 1.6.2.5.4 1 .7 1.3l1.2.8c.5.3 1 .4 1.6.4a3.8 3.8 0 003.6-2.5 4.5 4.5 0 000-3.2 3.7 3.7 0 00-3.6-2.5c-.6 0-1 .1-1.6.3a3.6 3.6 0 00-1.9 2.2c-.2.5-.3 1-.3 1.6zm7.5 2.9c-.4.7-1 1.2-1.6 1.6-.7.3-1.4.5-2.2.5a5 5 0 01-3.5-1.4l-1-1.6a5.6 5.6 0 011-5.6 4.7 4.7 0 013.5-1.4c.8 0 1.5.2 2.2.5a4 4 0 011.6 1.7v-7.9h1.2v15.5h-1.1v-2M108.3 71.6c.5 0 1-.1 1.4-.3l1-.8.6-1 .2-1.4v-.7H109c-.6 0-1.1.2-1.6.4-.5.1-.9.3-1.2.6-.3.3-.4.7-.4 1.2 0 .4 0 .7.2 1l.5.6.8.3.9.1zm-.3 1l-1.1-.2a3 3 0 01-1-.5c-.4-.3-.7-.6-.9-1-.2-.3-.3-.7-.3-1.2 0-.7.2-1.3.5-1.7l1.3-1 1.9-.4 2.1-.1h1v-.4c0-1-.3-1.6-.7-2-.5-.5-1.2-.7-2-.7a4 4 0 00-2.9 1.1l-.6-.7c.4-.4 1-.7 1.5-1a5.6 5.6 0 013.5 0c.5 0 .9.3 1.2.6.3.2.6.6.7 1l.3 1.5v4.2a17 17 0 00.2 2.2h-1a14.1 14.1 0 01-.2-1.8A4 4 0 01110 72a4 4 0 01-2 .5M116.1 77.2a4 4 0 01-1.1-.2l.1-1 1 .2c.5 0 .9-.2 1.1-.5.3-.3.5-.7.7-1.2l.8-2.2-4-9.6h1.3l3.3 8.4 3.1-8.4h1.2L119 75l-1 1.7c-.5.4-1 .6-1.8.6M134 71.6c.6 0 1-.1 1.4-.3.4-.2.8-.5 1-.8.3-.3.5-.7.6-1l.2-1.4v-.7h-2.4c-.6 0-1 .2-1.6.4-.4.1-.8.3-1.1.6-.3.3-.5.7-.5 1.2 0 .4 0 .7.2 1l.6.6.8.3.8.1zm-.3 1l-1-.2a3 3 0 01-1.1-.5c-.4-.3-.6-.6-.8-1-.2-.3-.3-.7-.3-1.2 0-.7.1-1.3.5-1.7.3-.4.8-.7 1.3-1l1.8-.4 2.2-.1h1v-.4c0-1-.3-1.6-.8-2-.5-.5-1.1-.7-2-.7a4 4 0 00-2.8 1.1l-.6-.7c.4-.4.9-.7 1.5-1a5.6 5.6 0 013.5 0c.4 0 .8.3 1.1.6.4.2.6.6.8 1l.3 1.5v4.2a16.1 16.1 0 00.1 2.2h-1a13.2 13.2 0 01-.1-1.8 4 4 0 01-1.5 1.5 4 4 0 01-2 .5M143 62.7a17 17 0 01.1 2l.6-1 .8-.6a4.2 4.2 0 012-.6c.7 0 1.2.1 1.7.3.4.2.8.5 1 .8.4.4.6.8.7 1.3.2.5.2 1 .2 1.6v5.8h-1v-5.4l-.2-1.4a3 3 0 00-.4-1c-.2-.4-.5-.6-.8-.8-.4-.2-.8-.3-1.4-.3a3 3 0 00-1.1.3c-.4.1-.8.4-1 .7-.4.4-.6.8-.8 1.3l-.2 1.7v4.9H142v-7.4a35 35 0 00-.1-2.2h1M154.4 67.5c0 .6 0 1 .3 1.6.1.5.4 1 .7 1.3a3.9 3.9 0 002.8 1.2 3.8 3.8 0 003.6-2.5c.2-.5.2-1 .2-1.6 0-.6 0-1.1-.2-1.6a3.7 3.7 0 00-3.6-2.5c-.6 0-1.1.1-1.6.3a3.6 3.6 0 00-2 2.2l-.2 1.6zm7.5 2.9a4.5 4.5 0 01-3.8 2.1 5 5 0 01-3.5-1.4c-.5-.5-.8-1-1-1.6a5.5 5.5 0 010-4 4.7 4.7 0 014.5-3c.7 0 1.5.2 2.1.5a4 4 0 011.7 1.7v-7.9h1.1v15.5h-1v-2h-.1M176.3 63.7h-2.7v6c0 .7.1 1.1.4 1.4.3.2.6.4 1 .4.5 0 .9-.1 1.3-.3v1a5.2 5.2 0 01-1.5.2 3 3 0 01-.8-.1 2 2 0 01-1.3-1.2c-.2-.3-.2-.7-.2-1.1v-6.3h-2v-1h2V60h1v2.7h2.8v1M186.9 67.5c0-.6-.1-1.1-.3-1.6a3.6 3.6 0 00-2-2.1 4 4 0 00-1.6-.3c-.6 0-1.1 0-1.6.3-.5.2-.9.5-1.2.8-.4.4-.6.8-.8 1.3a4.6 4.6 0 000 3.2 3.6 3.6 0 003.6 2.4 4 4 0 001.6-.3 3.6 3.6 0 002-2.1c.2-.5.3-1 .3-1.6zm1.1 0c0 .7-.1 1.4-.4 2a4.8 4.8 0 01-4.6 3c-.7 0-1.4-.1-2-.4a4.7 4.7 0 01-2.6-2.6c-.3-.6-.4-1.3-.4-2s.1-1.4.4-2a4.7 4.7 0 012.6-2.6c.6-.3 1.3-.4 2-.4s1.4.1 2 .4a4.7 4.7 0 013 4.6M191.2 65a35 35 0 000-2.3h1a17 17 0 010 2h.1a3.4 3.4 0 011.3-1.6l1-.5 1-.1c.7 0 1.3.2 1.8.5.5.4.9 1 1.2 1.8a3.6 3.6 0 013.4-2.3c.6 0 1.2.1 1.6.3a3 3 0 011.8 2l.2 1.7v5.8h-1.1v-5.4c0-.5 0-1-.2-1.4 0-.4-.2-.8-.4-1-.2-.4-.5-.6-.8-.8l-1.2-.3a2.7 2.7 0 00-2.3 1.2l-.5 1.2a6 6 0 00-.2 1.5v5h-1.1v-5.6l-.1-1.3c0-.4-.2-.7-.4-1a2 2 0 00-.7-.7l-1.2-.3-1.2.3-1 .7-.6 1.3c-.2.5-.2 1-.2 1.7v4.9h-1.2v-7.4M217.6 67.5c0-.6-.1-1.1-.3-1.6a3.6 3.6 0 00-2-2.1 4 4 0 00-1.6-.3 3.9 3.9 0 00-2.8 1.1c-.4.4-.6.8-.8 1.3a4.6 4.6 0 000 3.2 3.6 3.6 0 002 2.1c.4.2 1 .3 1.6.3a4 4 0 001.6-.3 3.6 3.6 0 002-2.1c.2-.5.3-1 .3-1.6zm1.1 0c0 .7-.1 1.4-.4 2a4.8 4.8 0 01-4.6 3c-.8 0-1.4-.1-2-.4a4.7 4.7 0 01-2.7-2.6c-.2-.6-.3-1.3-.3-2s.1-1.4.3-2a4.7 4.7 0 012.7-2.6c.6-.3 1.2-.4 2-.4.7 0 1.4.1 2 .4.6.2 1.2.6 1.6 1a5.3 5.3 0 011.4 3.6M222 65a35.7 35.7 0 00-.2-2.3h1.1a15.9 15.9 0 010 2h.1a3.3 3.3 0 013.5-2.2h.4l-.1 1.1h-.3a5 5 0 00-.5 0c-.9 0-1.6.3-2.1 1-.6.6-.9 1.5-.9 2.8v4.9h-1v-7.4M229.1 65a39.4 39.4 0 000-2.3h1a16 16 0 010 2h.1a3.3 3.3 0 013.5-2.2h.4l-.1 1.1h-.4a5 5 0 00-.4 0c-.9 0-1.6.3-2.1 1-.6.6-.9 1.5-.9 2.8v4.9h-1.1v-7.4M244 67.5c0-.6 0-1.1-.2-1.6a3.6 3.6 0 00-2-2.1 4 4 0 00-1.6-.3c-.6 0-1.1 0-1.6.3-.5.2-.9.5-1.2.8-.4.4-.6.8-.8 1.3a4.6 4.6 0 000 3.2 3.6 3.6 0 002 2.1c.5.2 1 .3 1.6.3a4 4 0 001.6-.3 3.6 3.6 0 002-2.1c.2-.5.3-1 .3-1.6zm1.2 0c0 .7-.1 1.4-.3 2a4.8 4.8 0 01-2.7 2.6c-.6.3-1.3.4-2 .4s-1.4-.1-2-.4a4.7 4.7 0 01-2.6-2.6c-.3-.6-.4-1.3-.4-2s.1-1.4.4-2a4.6 4.6 0 012.6-2.6c.6-.3 1.3-.4 2-.4s1.4.1 2 .4a4.8 4.8 0 012.7 2.6c.2.6.3 1.3.3 2M248.3 62.7l2.4 8.2 2.7-8.2h1.2l2.7 8.2 2.4-8.2h1.2l-3 9.6h-1.2l-2.7-8.1-2.7 8H250l-2.9-9.5h1.2M48.3 12.9c-1.3 0-5 5.3-8 11.9C30.4 44 30 37 30 36.8c.1-1.6.3-3.2.6-4.7 1.8-10 6.8-16 6.8-16-3.8-5-5.6-2.6-5.6-2.6-3.8 4.9-5.8 10.1-6.8 15l-1 2c-8.2 15.7-8.1 6.7-8.1 6.5 0-1.7.2-3.3.5-4.7 1.8-10.1 6.8-16 6.8-16-3.8-5-5.6-2.7-5.6-2.7-7 9-8 19.4-7.5 26.4 0 0 .4 4.8 3.3 4.5 4.2 0 7.2-3.4 10.8-8.2v3.5s-.2 4.4 3.3 4.8c7 .6 26.3-28.2 26.3-28.2s-2.4-3.5-5.5-3.5M55 27.6c.1 0 1.1-.3 1.2.5.2 2.5-4.9 5.3-7.5 6.7.8-2.8 3.3-6.6 6.3-7.2zm-2.3 13.8c-3.5.3-5-2.6-4.2-5.4 6.4 1 10.8-6.6 10-8.4-.3-1.2-1.6-3.1-3.9-3.1-5.2 0-11 8.3-10.8 13.4 0 0-.6 6.8 6.2 7.3 6.8.4 10.2-10.4 10.2-10.4s-4 6.2-7.5 6.6M180.2 49.9c-2 0 .4-5 1.8-7.7.9 2.8.2 7.7-1.8 7.7zM201.7 27c.1 0 1-.2 1.2.6.2 2.3-4.6 5-7.1 6.3.8-2.6 3-6.2 6-6.9zm-2.2 13.1c-4.7.2-4-4.4-4-5 6.1.9 10.2-6.3 9.6-8-.4-1.1-1.6-3-3.7-3-4.9 0-10.3 7.7-10.3 12.5-1.2 1.5-2.8 3-4.2 2.8-1-.2-1.1-2-.5-4.5l.5-1c2.7-5 6-9.1 6-9.1-1.6-2.5-4.4-2.4-4.4-2.4a48.5 48.5 0 00-8.2 13.5c-1.1 1.6-3.2 4-4.8 3.6-2-.3-.6-8 4.3-13.6 0 0-1.4-1.8-3.3-1.8-1.1 0-4.7 6-5.4 11.2a45.7 45.7 0 01-6.7 8c-.8.5-.8-.5-.6-1.6.8-3.2 2.6-8.9 6.2-15.7 2.7-5.1 6.1-9.2 6.1-9.2-1.7-2.4-4.4-2.4-4.4-2.4-5.6 6-10 17.5-11.7 24.4 0 0-3 8.4.8 8.4 5.4 0 8.9-7.7 10.2-11-.3 2.9.5 5.4 3.1 6.3 1.9.6 3.4-.7 4.6-2.5a30.6 30.6 0 00-2.6 12.3c.2.8 1.5 4 6.4 1 4-2.3 2.8-8 1.5-11.8.4.4 1 .7 1.5 1 2.5.7 4.4-2 5.6-4.4.3 2 1.3 5.3 5.9 5.6 6.4.4 9.7-9.8 9.7-9.8s-3.8 6-7.2 6.2M111.6 39.2c-2-.4-.7-8 4.2-13.7 0 0-1.4-1.8-3.3-1.7-.5 0-1.4 1-2.4 2.8-.8-1.4-2.3-2.9-4.4-2.8-3.2.2-7.7 6.2-9.5 11.7-1.5 2.1-5 6.9-6.4 7.6-1.2.7-.2-2.8 0-3.1 1-3.1 4.8-8.7 4-11.6-.8-2.3-3-2.3-3-2.3s-2.4-.3-7 5.9a6 6 0 00.3-3.6c-.6-2.2-3-2.2-3-2.2s-2.4-.3-7.3 6.4c1.9-3.8 4.3-6.8 4.3-6.8-2.6-2.8-3.8-1.4-3.8-1.4-4.8 5.1-6.9 15-6.6 19 0 0 2.3.7 3.1 0l.7-1.8.2-.4c.6-1.5 2.5-6.1 4.7-8.7.2-.1 2-2.2 2.7-1.5.9 1-1.8 4.2-3.3 8.8-1.5 4.5 3.8 3.4 3.8 3.4s3.6-7.5 6.4-10.7c.1-.2 1.8-2 2.7-1.6 1.2.6-1.8 4.2-3.3 8.8 0 0-3 7.2.8 7.2 4.4 0 7.6-5.3 9.3-9-.6 3.5.1 6.4 3.4 6.8 6 .5 7.3-7 7.3-7s-3.2 4.6-5 3.5c-1.5-1 2-13.3 8-13-2.3 4.8-4 12.2 1 14 4.3 1.3 7-8 7-8s-3.3 5.4-5.6 5"/><path d="M147.5 27.6s1-.3 1.2.5c.2 2.5-4.9 5.3-7.5 6.7.8-2.8 3.3-6.6 6.3-7.2zm-2.3 13.8c-3.4 0-4.4-2.8-4.2-5.4 6.4 1 10.7-6.6 10-8.4-.4-1.2-1.6-3.1-3.9-3.1-5 0-10.5 7.6-10.8 12.7-1.7 2.3-3.9 5-4.8 5.5-1.8 1-2-3.4-2-3.4s0-3.9 1.5-6.5c4.3-2.4 8-7.7 1.6-9-3.6-.8-6.4 2.3-8.2 5.7.6-1.3 1.2-2.7 2-4.1 2.7-5 6.1-9.1 6.1-9.1-1.7-2.5-4.4-2.5-4.4-2.5-8.2 8.8-13.8 28.9-12.2 30.1 1.9 1.5 3.7 0 3.7 0s.4-2.7 1.8-7c0 0 6.5-11.1 9.8-10.5 3.4.7-4.4 7-4.6 7.7 0 0-1.6 2.1-1.6 6.3-.1 2 0 6.2 2.9 6.1 3.7 0 6.6-3.8 8.4-7.2.2 2 1.3 5.6 6.2 5.9 6.8.4 10.2-10.4 10.2-10.4s-4 6.6-7.5 6.6M185 17c-1.6-1.9-3.5-1.4-3.5-1.4l-4 6c1.1 1 3 .7 3 .8.6-1.9 4.5-5.4 4.5-5.5M241.3 38.4c-2-.4-.7-8 4.3-13.7 0 0-1.5-1.7-3.3-1.7-.5 0-1.5 1.1-2.4 2.8-.9-1.3-2.4-2.9-4.5-2.7-3.2.1-7.7 6.2-9.5 11.8a40.8 40.8 0 01-6.3 7.4c-.8.5-.8-.5-.6-1.7a70.2 70.2 0 017.6-18h3.8c9.3.3 8.5-6.8 8.6-7-2.3 2.1-6 2.7-9.7 2.8l2-2.6c-1.7-2.5-4.4-2.4-4.4-2.4-1.3 1.4-2.5 3-3.7 4.9h-5c-4.3.8-4 3.9-4 3.9.9-.4 3.1-.2 6.8 0a75.2 75.2 0 00-5.8 15.5s-3 8.5.8 8.4c4.4 0 7.5-5 9.2-8.7-.6 3.4.2 6.1 3.5 6.6 5.9.5 7.2-7.1 7.2-7.1s-3.2 4.7-4.9 3.6c-1.5-1 1.9-13.4 8-13.1-2.3 4.8-4.1 12.3.9 14 4.3 1.3 7-8 7-8s-3.3 5.4-5.6 5"/><path d="M249 41v.1c-.2.1-.4.2-.7 0-.6-1.2.5-3.9 1.3-5.3.4 1.5 1.5 3-.5 5.2zm11.6-16c-1.9-5.5-14.9.2-12.9 6.7.4 1.2 2 3.2 1.4 3.5-2.3 1.4-5.2 8.2-1.2 9 3.4.7 5-.2 6.2-2.2.8-1.4 1-2.3.6-4.2-1.6-6.6-4.1-12-.1-12.3 4-.3 1.8 5.2 1.8 5.2s6.1-.3 4.2-5.8"/><path d="M299.1 22.6c0-1 1.6-3.6 1.7-3.4.1.5-1 2.5-1.7 3.4zm-8.6 3s1.1-.3 1.2.6c.2 2.5-4.9 5.2-7.5 6.6.8-2.7 3.3-6.5 6.3-7.2zm11.3 16c-2.3-.3 2-9 7.7-15.5 0 0-1-2.5-4.1-1.9 0 0-2.7.8-4.3 0a22 22 0 001.7-3.8c.4-2-3.4-4-4.8-.3-.8 2.1-1.1 4.2 0 5.5 0 .3-.3.8-.5 1.4a77 77 0 01-4 9c-1.6 1.7-3.5 3.2-5.3 3.4-3.4.4-4.6-2.6-4.2-5.4 6.4 1 10.7-6.6 10-8.4-.4-1.1-1.6-3.1-3.9-3-4.7 0-10 6.8-10.7 11.9-1.2 1.6-3.2 3.9-4.8 3.6-2-.4-1.5-7.4 3.4-13 0 0-1.4-1.8-3.3-1.8-1.2 0-4.4 6-4.9 11-1.5 2.2-5 7-6.3 7.6-.8.5-.8-.5-.6-1.7a70.2 70.2 0 017.5-18h3.9c9.2.3 8.4-6.8 8.5-7-2.2 2.1-5.9 2.7-9.6 2.8l2-2.6c-1.7-2.5-4.4-2.5-4.4-2.5-1.3 1.4-2.6 3.1-3.7 5-2-.1-3.8-.2-5 0-4.4.8-4 3.9-4 3.9.8-.4 3-.2 6.8 0a75.2 75.2 0 00-5.8 15.5s-3 8.5.8 8.4c5 0 8.4-6.8 9.9-10.3 0 2.6.9 4.8 3.4 5.7 2.7.8 4.9-2.6 6-5.2 0 0-.5 6.9 6.3 7.3 4.6.3 7.6-4.4 9.1-7.6a27 27 0 002.4-3.9l2.8-5c.7.3 1.7.4 2.8.4-3.8 5.3-8.8 15.8-2.4 18 5 1.5 8-9 8-9s-3.7 6-6.4 5.6"/></g></svg>